<mxfile host="app.diagrams.net" modified="2024-05-22T05:48:57.463Z" agent="Mozilla/5.0 (Windows NT 10.0; Win64; x64) AppleWebKit/537.36 (KHTML, like Gecko) Chrome/125.0.0.0 Safari/537.36" version="24.4.4" etag="kvvzOPjzyo8c6ziVawAZ" type="github">
  <diagram name="Page-1" id="UIDMCw7Yrbh4d3tj1Iv-">
    <mxGraphModel>
      <root>
        <mxCell id="0" />
        <mxCell id="1" parent="0" />
      </root>
    </mxGraphModel>
  </diagram>
</mxfile>
